<?xml version="1.0"?>
<svg width="1024" height="1024" xmlns="http://www.w3.org/2000/svg" xmlns:svg="http://www.w3.org/2000/svg" enable-background="new 0 0 1024 1024" version="1.1" xml:space="preserve">
 <g class="layer">
  <title>Layer 1</title>
  <path d="m317.77,606.94c-0.06,-3.72 -0.13,-6.9 -0.18,-10.09c-0.05,-2.77 -1.3,-4.15 -4.03,-2.87c-3.68,1.72 -7.28,3.62 -10.82,5.63c-2.55,1.43 -2.46,4.05 -2.46,6.58c-0.05,35.08 -0.26,70.15 -0.14,105.23c0.08,22.31 -0.7,44.63 0.57,66.93c0.17,2.94 0.43,6.4 -2.77,8.06c-3.65,1.88 -6,-1.24 -8.32,-3.17c-50.68,-41.98 -87.43,-93.63 -109.38,-155.88c-15.02,-42.6 -20.47,-86.5 -17.62,-131.22c6.12,-96.13 44.1,-177.81 114.88,-243.44c29.7,-27.54 63.9,-48.54 101.39,-64.2c30.93,-12.91 63.04,-21.15 96.23,-24.85c32.67,-3.66 65.3,-2.16 97.75,3.58c75.71,13.41 139.21,49.38 192.23,104.37c34.95,36.24 59.63,78.94 76.69,126.17c10.57,29.28 16.95,59.51 19.25,90.5c4.75,63.89 -6.59,124.7 -35.7,182.03c-22.91,45.09 -54.31,83.16 -93.87,114.56c-2.01,1.59 -4.05,3.72 -7.1,2.38c-3.33,-1.46 -3.76,-4.49 -3.82,-7.56c-0.11,-4.96 -0.03,-9.93 -0.03,-14.88c-0.02,-82.21 -0.17,-164.41 0.13,-246.6c0.03,-8.27 -1.59,-14.4 -9.01,-18.5c-2.57,-1.42 -4.33,-4.24 -7.57,-4.66c-1.86,1.57 -1.11,3.67 -1.11,5.5c-0.03,99.22 -0.05,198.42 0.1,297.62c0,4.73 -1.66,7.31 -5.52,9.77c-43.88,27.87 -91.58,45.22 -143.09,51.95c-14.03,1.84 -28.19,2.67 -42.38,2.37c-7.49,-0.16 -7.59,-0.2 -7.59,-7.87c0.01,-115.16 0.03,-230.31 0.02,-345.46c-0.01,-68.03 -0.14,-136.06 0,-204.09c0.01,-7.03 -1.43,-12.4 -8.31,-15.49c-2.84,-1.28 -4.97,-3.89 -9.04,-5.25c0,3.82 0,7.11 0,10.41c0,184.94 0.02,369.89 -0.04,554.85c-0.01,11.99 2.84,12.65 -12.22,11.05c-36.28,-3.82 -70.73,-13.81 -103.89,-28.83c-5.77,-2.6 -7.74,-6.06 -7.47,-12.19c1.28,-28.33 0.48,-56.68 0.54,-85.01c0.1,-47.46 0.04,-94.93 0,-142.4c0,-5.12 -0.38,-10.26 -0.5,-15.39c-0.09,-3.76 -1.32,-5.14 -5.27,-3.55c-11.59,4.63 -11.65,4.54 -11.65,17.23c-0.01,72.63 -0.01,145.26 -0.05,217.89c0,3.1 1.08,7.09 -2.05,8.82c-2.92,1.62 -5.53,-1.45 -8.05,-2.94c-4.56,-2.72 -8.97,-5.69 -13.55,-8.37c-3.95,-2.31 -5.28,-5.5 -5.27,-10.09c0.16,-56.17 0.13,-112.32 0.15,-168.48c0,-6.56 -0.03,-13.11 -0.05,-20.19m463.92,-250.83c-22.64,-38.81 -52.28,-71.26 -88.75,-97.48c-59.97,-43.11 -126.64,-63.23 -200.59,-58.71c-35.87,2.19 -70.28,10.42 -103.13,24.89c-56.89,25.07 -102.81,63.49 -137.16,115.28c-29.78,44.9 -47.52,94.26 -52.14,148.11c-2.64,30.84 -1.72,61.52 5.03,91.82c10.04,45.08 29.52,85.86 56.94,122.92c2.51,3.4 4.53,7.28 8.56,10.18c0,-8.93 0.2,-17.25 -0.03,-25.54c-0.97,-33.65 -0.28,-67.3 -0.36,-100.95c0,-3.18 1.31,-5.17 4.29,-6.55c7.88,-3.64 15.61,-7.56 23.42,-11.35c45.38,-22.05 90.74,-44.11 136.16,-66.09c2.75,-1.33 5.44,-3.34 8.89,-2.81c1.04,2.13 0.72,4.28 0.72,6.38c-0.01,99.54 -0.03,199.09 -0.06,298.63c-0.01,13.14 -0.03,13 12.69,15.85c3.87,0.86 4.82,-0.6 4.79,-3.94c-0.03,-4.07 0.06,-8.14 0.06,-12.21c-0.04,-190.42 -0.09,-380.83 -0.09,-571.25c0,-2 -0.74,-4.22 0.92,-6.07c2.8,-0.09 4.6,1.8 6.55,3.2c7.47,5.38 14.88,10.85 22.3,16.29c27.55,20.23 55.07,40.49 82.68,60.64c3.18,2.32 4.52,4.87 4.29,8.9c-0.38,7.07 -0.02,14.17 -0.21,21.25c-0.09,3.27 0.85,5.69 3.45,7.81c7.95,6.49 15.8,13.13 23.6,19.81c47.72,40.92 95.39,81.9 143.14,122.78c2.78,2.38 4.09,4.88 4.09,8.63c-0.1,70.85 -0.06,141.7 -0.03,212.56c0,1.62 -0.53,3.43 1.03,5.1c11.24,-13.16 20.66,-27.24 29.31,-41.88c35.8,-60.61 50.01,-125.85 41,-195.72c-5.5,-42.6 -19.68,-82.48 -41.37,-120.48m-250.2,198.2c0,90.46 0,180.9 0,272.13c3.24,-0.7 5.43,-1.19 7.64,-1.65c9.99,-2.08 10,-2.07 10,-12.22c-0.01,-157.79 -0.03,-315.6 -0.03,-473.4c0,-8.65 -7.77,-17.05 -17.61,-18.09c0,77.46 0,154.81 0,233.23m98.95,-65.57c-0.07,-17.53 -0.16,-35.07 -0.21,-52.59c-0.03,-8.28 -7.2,-16.69 -16.22,-18.58c0,129.85 0,259.59 0,390.02c4.32,-1.61 7.74,-3.01 11.25,-4.16c4.1,-1.35 6.07,-3.87 5.7,-8.32c-0.38,-4.58 -0.63,-9.18 -0.63,-13.78c0,-89.8 0.03,-179.6 0.06,-269.39c0.01,-7.43 0.07,-14.86 0.05,-23.19m44.53,245.21c-0.04,-86.22 -0.07,-172.43 -0.11,-258.65c-0.01,-9.94 -5.87,-17.41 -16.1,-20.29c0,111 0,221.93 0,333.67c3.84,-1.62 6.66,-3.14 9.67,-4.02c5.08,-1.5 6.68,-4.58 6.56,-9.82c-0.32,-13.27 -0.05,-26.55 -0.02,-40.89m-282.36,20.2c-0.01,13.63 -0.02,27.26 -0.01,40.89c0,2.08 -0.54,4.51 1.8,5.72c4.64,2.4 9.33,4.82 14.64,5.35c1.4,-2.48 0.95,-4.84 0.95,-7.07c0.03,-78.79 0.02,-157.56 0.01,-236.35c0,-3.01 -0.04,-6.02 -0.18,-9.02c-0.07,-1.63 -0.4,-3.21 -2.43,-3.59c-5.75,-1.06 -14.8,6.48 -14.8,12.35c0.01,63.55 0.02,127.11 0.03,191.72z" fill="#000000" id="svg_1" opacity="1"/>
  <path d="m398.04,414.41c1.76,20.62 -13.26,38.69 -31.52,42.99c-20.46,4.82 -39.86,-4.21 -48.63,-22.32c-6.48,-13.37 -4.82,-33.75 7.16,-46.65c11.07,-11.91 29.09,-16.59 45.39,-11.01c15.23,5.22 26.64,20.32 27.6,36.99z" fill="#000000" id="svg_16" opacity="1"/>
  <text fill="#000000" font-family="Helvetica" font-size="24" font-weight="bold" id="svg_22" opacity="1" stroke-dasharray="null" stroke-linecap="null" stroke-linejoin="null" stroke-width="0" text-anchor="middle" transform="matrix(3.6721 0 0 3.6721 -322.406 -2415.29)" x="227.23" xml:space="preserve" y="919.55">PUERTO LEGAL</text>
 </g>

</svg>